<svg width="146" height="148" viewBox="0 0 146 148" fill="none" xmlns="http://www.w3.org/2000/svg">
<path d="M23.5 73.7314L1.5 72.7314L2 76.7314L8 95.2314L17 118.231L26 139.231L29.5 144.731L40 146.231L51 146.731L66.5 146.231H80.5L89 145.731L104 144.731L115.5 143.231L125 140.731L129 128.231L134 112.731L138.5 98.2314L142 81.7314L144 71.7314L124 72.7314H105.5H84H60L23.5 73.7314Z" fill="#393939" stroke="black"/>
<path d="M72.9435 72.7314L72.9196 72.7311L72.8958 72.7319C36.408 73.9827 18.2338 74.3546 9.17678 73.8054C6.91844 73.6685 5.25969 73.4759 4.041 73.2335C2.81113 72.9889 2.10135 72.7068 1.68769 72.4357C1.31658 72.1925 1.17894 71.9572 1.10322 71.6948C1.00758 71.3635 1 70.9612 1 70.3094C1 68.5231 1.05028 67.6494 1.81992 66.9348C2.23603 66.5485 2.93175 66.151 4.13587 65.7862C5.33647 65.4224 6.97934 65.1097 9.22988 64.8523C18.2668 63.8188 36.4201 63.7436 72.9167 64.2313L72.9368 64.2315L72.9568 64.231C109.443 63.2559 127.587 63.5687 136.605 64.8371C141.157 65.4774 143.141 66.336 144.029 67.1853C144.82 67.9418 144.86 68.7944 144.86 70.3094C144.86 70.7798 144.847 70.9621 144.791 71.1001C144.763 71.1685 144.689 71.3224 144.282 71.5216C143.843 71.7358 143.102 71.9592 141.855 72.1608C140.619 72.3604 138.947 72.5299 136.684 72.6667C127.613 73.2149 109.423 73.2189 72.9435 72.7314Z" fill="#393939" stroke="black" stroke-width="2"/>
<path d="M78.6478 13.8566C80.8118 15.1603 83.1988 15.5028 85.6652 15.5333C88.2704 15.5655 89.9397 16.2696 92.4386 16.8447C95.251 17.4919 98.5918 17.4499 101.453 17.2046C103.458 17.0327 112.322 15.3272 108.539 11.5482C105.954 8.96687 100.281 9.74405 96.941 9.28967C94.8644 9.00718 92.9603 8.12319 90.9105 7.83164C89.2071 7.58936 87.4051 7.63724 85.6846 7.50596C83.0746 7.3068 81.026 7.78261 78.7667 9.10592C77.1265 10.0666 78.3352 12.2985 78.6478 13.8566Z" fill="#EC8C34" stroke="black" stroke-width="2" stroke-linecap="round"/>
<path d="M74.1924 67.1173C73.6384 68.7794 74.1903 71.2064 76.4545 70.0077C77.0159 69.7105 75.0071 67.5417 74.538 67.1173C74.2479 66.8548 76.2769 66.2375 76.8001 67.4C76.988 67.8177 77.406 69.8578 76.3131 69.615C75.9502 69.5343 75.7536 68.6697 75.6062 68.3897C75.508 68.2032 75.2471 67.8744 75.5748 67.7456C75.7406 67.6805 76.1652 67.5609 76.1089 67.7299C75.7435 68.8262 76.9186 69.5471 75.2292 69.0966C75.1911 69.0864 74.4232 68.7073 74.5223 68.9552C74.6345 69.2358 75.7199 69.0966 75.4177 69.0966C74.2324 69.0966 75.1633 68.187 75.6062 67.9655" stroke="black" stroke-linecap="round"/>
<path d="M74.5535 67.8675C74.604 68.0248 74.848 68.6914 74.8353 68.682C74.7569 68.6242 74.2328 68.2376 74.6037 68.4658C74.7824 68.5758 75.542 69.6815 75.2869 69.9365C75.2248 69.9986 75.2621 69.958 75.3525 69.9057C75.6658 69.7243 75.4914 69.072 75.4529 68.8055C75.4068 68.4866 75.3879 68.1541 75.1943 67.8907C74.9576 67.5688 75.4114 67.3007 75.5957 67.1032" stroke="black" stroke-linecap="round"/>
<path d="M104 10.2314C102.441 11.8882 102.5 14.7314 103.752 16.0269" stroke="black" stroke-width="2" stroke-linecap="round"/>
<path d="M106.22 13.2067C109.736 14.6299 111.005 16.6583 111.136 20.5315C111.401 28.3557 108.393 37.0708 103 42.7314C98.1578 49.1524 92.0184 55.1751 85 60.7314C81.8421 63.2314 77.5062 65.5564 75.5 68.2314" stroke="black" stroke-width="3" stroke-linecap="round"/>
<path d="M77.5 12.2314C73.5234 12.6832 68.589 18.1911 66.3054 21.1007C61.0683 27.7731 57.2176 34.8029 54.5738 42.8195C52.014 50.5815 45.0729 56.372 40.5 63.2314" stroke="black" stroke-width="3" stroke-linecap="round"/>
<path d="M103.94 10.3631C104.155 10.2798 104.333 10.2827 104.55 10.262C104.663 10.2512 104.758 10.1915 104.867 10.1719C105.004 10.1472 105.148 10.0653 105.28 10.0653C105.406 10.0653 105.539 10.101 105.661 10.1315" stroke="black" stroke-linecap="round"/>
<path d="M103.808 15.4589C103.925 15.5601 104.106 15.7408 104.17 15.8891C104.193 15.944 104.221 16.0703 104.291 16.0858C104.336 16.0958 104.384 16.0791 104.429 16.095C104.486 16.1154 104.51 16.182 104.576 16.1869C104.659 16.1931 104.726 16.1538 104.8 16.1538C104.915 16.1538 105.033 16.1869 105.15 16.1869C105.35 16.1869 105.51 16.1051 105.705 16.0895C105.864 16.0768 106.018 16.057 106.179 16.0545C106.317 16.0524 106.624 15.9353 106.322 16.0215" stroke="black" stroke-linecap="round"/>
<path d="M103.973 15.8229C104.277 15.8422 104.472 16.005 104.742 16.095C104.91 16.1513 105.513 16.284 105.594 16.1207" stroke="black" stroke-linecap="round"/>
<path d="M124.773 140.76C124.783 140.746 124.864 140.618 124.883 140.659C124.902 140.701 124.893 140.589 124.888 140.578C124.858 140.509 124.682 140.701 124.651 140.718C124.617 140.738 124.566 140.719 124.527 140.737C124.476 140.762 124.477 140.754 124.452 140.704" stroke="black" stroke-linecap="round"/>
<path d="M125.074 140.145C125.028 140.144 125.002 140.178 124.977 140.212C124.969 140.223 124.964 140.228 124.952 140.234C124.93 140.245 124.916 140.265 124.899 140.283C124.864 140.319 124.822 140.362 124.768 140.355C124.732 140.351 124.695 140.353 124.66 140.348C124.642 140.345 124.689 140.307 124.694 140.303C124.709 140.29 124.711 140.285 124.711 140.266C124.711 140.22 124.697 140.176 124.7 140.129C124.701 140.111 124.702 140.081 124.714 140.066C124.722 140.058 124.733 140.053 124.743 140.048C124.749 140.046 124.754 140.045 124.759 140.043C124.76 140.042 124.756 140.042 124.755 140.043C124.738 140.046 124.717 140.05 124.702 140.057C124.691 140.063 124.675 140.073 124.662 140.068C124.641 140.061 124.62 140.041 124.602 140.029C124.58 140.015 124.556 140.009 124.533 139.999C124.513 139.99 124.49 139.981 124.469 139.981" stroke="black" stroke-linecap="round"/>
<mask id="path-14-inside-1_5_111" fill="white">
<path fill-rule="evenodd" clip-rule="evenodd" d="M125.933 140.338L126.417 138.921C135.779 111.516 139.937 99.3425 145.471 71.1162L143.509 70.7314C142.414 76.316 141.373 81.2675 140.336 85.8319C136.837 84.8299 132.232 84.0533 126.744 83.4723C127.234 79.9476 127.715 76.2242 128.197 72.2276L126.211 71.9884C125.728 76.0018 125.244 79.7381 124.753 83.2736C123.169 83.1248 121.519 82.9909 119.807 82.8711C114.839 82.5236 109.334 82.2948 103.399 82.173C103.246 79.0831 102.937 75.8979 102.43 72.5797L100.453 72.8818C100.942 76.0795 101.243 79.1516 101.395 82.1361C96.9582 82.064 92.2953 82.0491 87.4495 82.0869C84.4882 82.11 81.4579 82.1528 78.3685 82.2142C78.4494 79.0593 78.6454 75.7768 78.9949 72.3323L77.0051 72.1304C76.6468 75.6617 76.4476 79.0261 76.367 82.2563C68.1152 82.4401 59.4624 82.7532 50.5899 83.1765C50.4415 79.8526 50.3187 76.3877 50.2206 72.7381L48.2213 72.7918C48.3198 76.4563 48.4432 79.9356 48.5923 83.2735C41.1323 83.6419 33.5277 84.0866 25.885 84.5964C25.3003 81.1047 24.8177 77.4265 24.4652 73.4779L22.4731 73.6557C22.824 77.5858 23.3022 81.2518 23.88 84.7316C17.9585 85.135 12.0198 85.5769 6.11331 86.0519C4.61704 81.3125 3.26571 76.5383 1.93826 71.3202L0 71.8133C5.48525 93.3754 11.3914 107.448 25.9696 142.082C25.9588 143.134 26.6915 143.883 27.4808 144.381C28.306 144.902 29.4518 145.324 30.8039 145.679C33.5249 146.394 37.3729 146.907 41.9322 147.256C51.0684 147.956 63.2587 148.009 75.4702 147.601C87.6844 147.193 99.9542 146.323 109.255 145.169C113.9 144.593 117.834 143.942 120.658 143.235C122.064 142.883 123.241 142.506 124.103 142.097C124.533 141.893 124.927 141.662 125.239 141.393C125.525 141.146 125.82 140.799 125.933 140.338ZM6.73973 88.0081C8.54767 93.5755 10.5788 99.1725 13.0296 105.463C18.2496 104.996 23.4021 104.83 28.5657 104.858C26.9041 99.0719 25.393 93.2024 24.2231 86.7128C18.3975 87.1089 12.554 87.5423 6.73973 88.0081ZM20.1897 123.126C17.766 117.297 15.6591 112.144 13.7904 107.404C18.9459 106.965 24.0356 106.818 29.1474 106.861C29.3912 107.691 29.6375 108.522 29.886 109.353C30.3009 110.741 30.7215 112.133 31.1453 113.534L31.1462 113.537L31.1467 113.539L31.1473 113.541L31.1479 113.543L31.1479 113.543C32.2559 117.208 33.3855 120.944 34.4916 124.888C29.9645 124.379 25.213 123.792 20.1897 123.126ZM21.0786 125.261C23.1669 130.268 25.4826 135.77 28.0713 141.92L28.3331 142.542C28.394 142.588 28.4652 142.637 28.5482 142.689C29.1171 143.048 30.0317 143.409 31.3119 143.745C33.3029 144.268 36.0052 144.689 39.2559 145.014C37.9929 138.338 36.5585 132.436 35.0661 126.964C30.6314 126.472 25.9838 125.905 21.0786 125.261ZM37.2015 127.197C38.6719 132.649 40.0845 138.546 41.3261 145.202C41.5764 145.222 41.8293 145.243 42.0849 145.262C46.0434 145.565 50.5926 145.746 55.4793 145.819C54.5249 139.665 53.6685 134.012 52.9059 128.612C47.941 128.261 42.7365 127.79 37.2015 127.197ZM36.6341 125.125C42.2796 125.737 47.577 126.224 52.6227 126.587C51.7327 120.156 50.9779 114.047 50.351 107.825C43.8218 107.376 37.5054 107.001 31.2403 106.888C31.4262 107.519 31.6136 108.149 31.8023 108.78C32.216 110.165 32.6362 111.555 33.0603 112.957L33.0604 112.957L33.0604 112.957L33.0604 112.957C34.241 116.862 35.4513 120.864 36.6341 125.125ZM54.9453 128.75C55.7051 134.108 56.5575 139.725 57.5069 145.843C63.2021 145.894 69.2943 145.806 75.4034 145.602C76.1924 145.576 76.9816 145.547 77.7701 145.517C78.7374 139.782 79.0967 134.456 79.1002 129.314C71.4199 129.492 63.5312 129.306 54.9453 128.75ZM79.084 127.314C71.3297 127.495 63.3598 127.301 54.6613 126.727C53.7656 120.283 53.0063 114.176 52.3755 107.965C53.5959 108.051 54.8243 108.139 56.0616 108.227L56.0656 108.227L56.0663 108.227L56.0671 108.227C59.4325 108.467 62.8642 108.711 66.3827 108.936C70.1045 109.174 73.9189 109.389 77.8493 109.552C77.8926 109.993 77.9357 110.432 77.9784 110.871C78.5132 116.363 78.9913 121.746 79.084 127.314ZM81.1002 129.259C81.099 134.385 80.7512 139.71 79.8112 145.435C85.3655 145.199 90.8504 144.872 95.9769 144.47C96.0358 138.664 96.4223 133.301 96.9657 128.229C91.648 128.747 86.4141 129.091 81.1002 129.259ZM97.1931 126.197C91.7902 126.733 86.4786 127.087 81.0834 127.259C80.9886 121.608 80.5042 116.173 79.969 110.677C79.9351 110.329 79.9009 109.98 79.8666 109.631C86.0807 109.858 92.5883 109.945 99.4784 109.781C99.3122 110.925 99.142 112.075 98.9705 113.233L98.9704 113.234C98.3525 117.408 97.7184 121.692 97.1931 126.197ZM98.9995 128.023C98.4433 133.114 98.0447 138.484 97.9788 144.308C101.95 143.975 105.674 143.598 109.008 143.184C110.515 142.997 111.939 142.803 113.267 142.603C113.706 140.611 114.131 138.686 114.542 136.82C115.421 132.839 116.242 129.122 117.013 125.572C110.744 126.593 104.81 127.411 98.9995 128.023ZM117.468 123.471C111.109 124.52 105.104 125.359 99.2316 125.987C99.7413 121.691 100.349 117.581 100.946 113.549L100.946 113.548L100.946 113.548C101.136 112.267 101.324 110.994 101.507 109.726C107.545 109.54 113.876 109.157 120.56 108.503C119.612 113.381 118.593 118.261 117.468 123.471ZM119.136 125.221C118.315 129.007 117.439 132.975 116.497 137.245L116.497 137.245L116.497 137.245L116.49 137.277L116.479 137.325L116.471 137.362L116.45 137.455C116.106 139.016 115.752 140.617 115.39 142.265C117.23 141.953 118.839 141.628 120.172 141.295C121.531 140.954 122.56 140.615 123.247 140.289C123.591 140.126 123.809 139.985 123.932 139.879C123.989 139.829 124.011 139.8 124.016 139.794C124.012 139.8 123.996 139.829 123.987 139.881L124.969 140.067L124.023 139.744L124.522 138.283L124.522 138.282L124.522 138.282C126.406 132.768 128.077 127.875 129.59 123.347C125.983 124.029 122.509 124.653 119.136 125.221ZM130.314 121.174C126.608 121.881 123.045 122.528 119.591 123.115C120.697 117.977 121.702 113.141 122.638 108.292C126.592 107.877 130.668 107.366 134.879 106.745C133.501 111.385 132.007 116.063 130.314 121.174ZM50.1525 105.806C43.519 105.352 37.0695 104.977 30.6533 104.879C28.9569 99.0118 27.4182 93.1049 26.2311 86.5778C33.7898 86.0747 41.3091 85.6356 48.6854 85.2713C49.0423 92.6164 49.5285 99.2977 50.1525 105.806ZM66.5102 106.94C70.1314 107.171 73.8378 107.381 77.6516 107.542C76.9383 100.271 76.2441 92.7156 76.3318 84.2576C68.1217 84.4413 59.5123 84.7531 50.683 85.1744C51.0442 92.6093 51.5386 99.3611 52.1752 105.946C53.5299 106.04 54.8927 106.138 56.2651 106.235H56.2651L56.2653 106.235L56.2657 106.235C59.618 106.474 63.0267 106.717 66.5102 106.94ZM79.6691 107.622C86.0322 107.859 92.6984 107.95 99.7665 107.773C100.87 99.9625 101.719 92.3579 101.476 84.1377C97.0246 84.0643 92.3399 84.0488 87.4651 84.0868C84.4877 84.1101 81.44 84.1532 78.332 84.2153C78.2404 92.6831 78.9457 100.253 79.6691 107.622ZM101.794 107.716C107.864 107.521 114.23 107.126 120.953 106.454C122.227 99.7493 123.373 92.9644 124.473 85.2563C122.938 85.1128 121.335 84.9829 119.668 84.8663C114.77 84.5237 109.339 84.2968 103.478 84.175C103.713 92.4094 102.877 100.009 101.794 107.716ZM123.029 106.239C127.054 105.808 131.207 105.277 135.499 104.631C137.057 99.2522 138.477 93.8426 139.887 87.7839C136.515 86.8071 131.976 86.0352 126.465 85.4541C125.388 93.0065 124.268 99.6752 123.029 106.239Z"/>
</mask>
<path fill-rule="evenodd" clip-rule="evenodd" d="M125.933 140.338L126.417 138.921C135.779 111.516 139.937 99.3425 145.471 71.1162L143.509 70.7314C142.414 76.316 141.373 81.2675 140.336 85.8319C136.837 84.8299 132.232 84.0533 126.744 83.4723C127.234 79.9476 127.715 76.2242 128.197 72.2276L126.211 71.9884C125.728 76.0018 125.244 79.7381 124.753 83.2736C123.169 83.1248 121.519 82.9909 119.807 82.8711C114.839 82.5236 109.334 82.2948 103.399 82.173C103.246 79.0831 102.937 75.8979 102.43 72.5797L100.453 72.8818C100.942 76.0795 101.243 79.1516 101.395 82.1361C96.9582 82.064 92.2953 82.0491 87.4495 82.0869C84.4882 82.11 81.4579 82.1528 78.3685 82.2142C78.4494 79.0593 78.6454 75.7768 78.9949 72.3323L77.0051 72.1304C76.6468 75.6617 76.4476 79.0261 76.367 82.2563C68.1152 82.4401 59.4624 82.7532 50.5899 83.1765C50.4415 79.8526 50.3187 76.3877 50.2206 72.7381L48.2213 72.7918C48.3198 76.4563 48.4432 79.9356 48.5923 83.2735C41.1323 83.6419 33.5277 84.0866 25.885 84.5964C25.3003 81.1047 24.8177 77.4265 24.4652 73.4779L22.4731 73.6557C22.824 77.5858 23.3022 81.2518 23.88 84.7316C17.9585 85.135 12.0198 85.5769 6.11331 86.0519C4.61704 81.3125 3.26571 76.5383 1.93826 71.3202L0 71.8133C5.48525 93.3754 11.3914 107.448 25.9696 142.082C25.9588 143.134 26.6915 143.883 27.4808 144.381C28.306 144.902 29.4518 145.324 30.8039 145.679C33.5249 146.394 37.3729 146.907 41.9322 147.256C51.0684 147.956 63.2587 148.009 75.4702 147.601C87.6844 147.193 99.9542 146.323 109.255 145.169C113.9 144.593 117.834 143.942 120.658 143.235C122.064 142.883 123.241 142.506 124.103 142.097C124.533 141.893 124.927 141.662 125.239 141.393C125.525 141.146 125.82 140.799 125.933 140.338ZM6.73973 88.0081C8.54767 93.5755 10.5788 99.1725 13.0296 105.463C18.2496 104.996 23.4021 104.83 28.5657 104.858C26.9041 99.0719 25.393 93.2024 24.2231 86.7128C18.3975 87.1089 12.554 87.5423 6.73973 88.0081ZM20.1897 123.126C17.766 117.297 15.6591 112.144 13.7904 107.404C18.9459 106.965 24.0356 106.818 29.1474 106.861C29.3912 107.691 29.6375 108.522 29.886 109.353C30.3009 110.741 30.7215 112.133 31.1453 113.534L31.1462 113.537L31.1467 113.539L31.1473 113.541L31.1479 113.543L31.1479 113.543C32.2559 117.208 33.3855 120.944 34.4916 124.888C29.9645 124.379 25.213 123.792 20.1897 123.126ZM21.0786 125.261C23.1669 130.268 25.4826 135.77 28.0713 141.92L28.3331 142.542C28.394 142.588 28.4652 142.637 28.5482 142.689C29.1171 143.048 30.0317 143.409 31.3119 143.745C33.3029 144.268 36.0052 144.689 39.2559 145.014C37.9929 138.338 36.5585 132.436 35.0661 126.964C30.6314 126.472 25.9838 125.905 21.0786 125.261ZM37.2015 127.197C38.6719 132.649 40.0845 138.546 41.3261 145.202C41.5764 145.222 41.8293 145.243 42.0849 145.262C46.0434 145.565 50.5926 145.746 55.4793 145.819C54.5249 139.665 53.6685 134.012 52.9059 128.612C47.941 128.261 42.7365 127.79 37.2015 127.197ZM36.6341 125.125C42.2796 125.737 47.577 126.224 52.6227 126.587C51.7327 120.156 50.9779 114.047 50.351 107.825C43.8218 107.376 37.5054 107.001 31.2403 106.888C31.4262 107.519 31.6136 108.149 31.8023 108.78C32.216 110.165 32.6362 111.555 33.0603 112.957L33.0604 112.957L33.0604 112.957L33.0604 112.957C34.241 116.862 35.4513 120.864 36.6341 125.125ZM54.9453 128.75C55.7051 134.108 56.5575 139.725 57.5069 145.843C63.2021 145.894 69.2943 145.806 75.4034 145.602C76.1924 145.576 76.9816 145.547 77.7701 145.517C78.7374 139.782 79.0967 134.456 79.1002 129.314C71.4199 129.492 63.5312 129.306 54.9453 128.75ZM79.084 127.314C71.3297 127.495 63.3598 127.301 54.6613 126.727C53.7656 120.283 53.0063 114.176 52.3755 107.965C53.5959 108.051 54.8243 108.139 56.0616 108.227L56.0656 108.227L56.0663 108.227L56.0671 108.227C59.4325 108.467 62.8642 108.711 66.3827 108.936C70.1045 109.174 73.9189 109.389 77.8493 109.552C77.8926 109.993 77.9357 110.432 77.9784 110.871C78.5132 116.363 78.9913 121.746 79.084 127.314ZM81.1002 129.259C81.099 134.385 80.7512 139.71 79.8112 145.435C85.3655 145.199 90.8504 144.872 95.9769 144.47C96.0358 138.664 96.4223 133.301 96.9657 128.229C91.648 128.747 86.4141 129.091 81.1002 129.259ZM97.1931 126.197C91.7902 126.733 86.4786 127.087 81.0834 127.259C80.9886 121.608 80.5042 116.173 79.969 110.677C79.9351 110.329 79.9009 109.98 79.8666 109.631C86.0807 109.858 92.5883 109.945 99.4784 109.781C99.3122 110.925 99.142 112.075 98.9705 113.233L98.9704 113.234C98.3525 117.408 97.7184 121.692 97.1931 126.197ZM98.9995 128.023C98.4433 133.114 98.0447 138.484 97.9788 144.308C101.95 143.975 105.674 143.598 109.008 143.184C110.515 142.997 111.939 142.803 113.267 142.603C113.706 140.611 114.131 138.686 114.542 136.82C115.421 132.839 116.242 129.122 117.013 125.572C110.744 126.593 104.81 127.411 98.9995 128.023ZM117.468 123.471C111.109 124.52 105.104 125.359 99.2316 125.987C99.7413 121.691 100.349 117.581 100.946 113.549L100.946 113.548L100.946 113.548C101.136 112.267 101.324 110.994 101.507 109.726C107.545 109.54 113.876 109.157 120.56 108.503C119.612 113.381 118.593 118.261 117.468 123.471ZM119.136 125.221C118.315 129.007 117.439 132.975 116.497 137.245L116.497 137.245L116.497 137.245L116.49 137.277L116.479 137.325L116.471 137.362L116.45 137.455C116.106 139.016 115.752 140.617 115.39 142.265C117.23 141.953 118.839 141.628 120.172 141.295C121.531 140.954 122.56 140.615 123.247 140.289C123.591 140.126 123.809 139.985 123.932 139.879C123.989 139.829 124.011 139.8 124.016 139.794C124.012 139.8 123.996 139.829 123.987 139.881L124.969 140.067L124.023 139.744L124.522 138.283L124.522 138.282L124.522 138.282C126.406 132.768 128.077 127.875 129.59 123.347C125.983 124.029 122.509 124.653 119.136 125.221ZM130.314 121.174C126.608 121.881 123.045 122.528 119.591 123.115C120.697 117.977 121.702 113.141 122.638 108.292C126.592 107.877 130.668 107.366 134.879 106.745C133.501 111.385 132.007 116.063 130.314 121.174ZM50.1525 105.806C43.519 105.352 37.0695 104.977 30.6533 104.879C28.9569 99.0118 27.4182 93.1049 26.2311 86.5778C33.7898 86.0747 41.3091 85.6356 48.6854 85.2713C49.0423 92.6164 49.5285 99.2977 50.1525 105.806ZM66.5102 106.94C70.1314 107.171 73.8378 107.381 77.6516 107.542C76.9383 100.271 76.2441 92.7156 76.3318 84.2576C68.1217 84.4413 59.5123 84.7531 50.683 85.1744C51.0442 92.6093 51.5386 99.3611 52.1752 105.946C53.5299 106.04 54.8927 106.138 56.2651 106.235H56.2651L56.2653 106.235L56.2657 106.235C59.618 106.474 63.0267 106.717 66.5102 106.94ZM79.6691 107.622C86.0322 107.859 92.6984 107.95 99.7665 107.773C100.87 99.9625 101.719 92.3579 101.476 84.1377C97.0246 84.0643 92.3399 84.0488 87.4651 84.0868C84.4877 84.1101 81.44 84.1532 78.332 84.2153C78.2404 92.6831 78.9457 100.253 79.6691 107.622ZM101.794 107.716C107.864 107.521 114.23 107.126 120.953 106.454C122.227 99.7493 123.373 92.9644 124.473 85.2563C122.938 85.1128 121.335 84.9829 119.668 84.8663C114.77 84.5237 109.339 84.2968 103.478 84.175C103.713 92.4094 102.877 100.009 101.794 107.716ZM123.029 106.239C127.054 105.808 131.207 105.277 135.499 104.631C137.057 99.2522 138.477 93.8426 139.887 87.7839C136.515 86.8071 131.976 86.0352 126.465 85.4541C125.388 93.0065 124.268 99.6752 123.029 106.239Z" fill="black"/>
<path d="M126.417 138.921L124.525 138.274L124.525 138.274L126.417 138.921ZM125.933 140.338L124.041 139.692L124.012 139.776L123.991 139.863L125.933 140.338ZM145.471 71.1162L147.434 71.501L147.819 69.5383L145.856 69.1535L145.471 71.1162ZM143.509 70.7314L143.893 68.7687L141.931 68.3839L141.546 70.3466L143.509 70.7314ZM140.336 85.8319L139.785 87.7546L141.818 88.3366L142.286 86.2752L140.336 85.8319ZM126.744 83.4723L124.763 83.1973L124.479 85.2437L126.534 85.4612L126.744 83.4723ZM128.197 72.2276L130.182 72.4669L130.422 70.4812L128.436 70.242L128.197 72.2276ZM126.211 71.9884L126.45 70.0028L124.465 69.7636L124.225 71.7492L126.211 71.9884ZM124.753 83.2736L124.566 85.2649L126.47 85.4438L126.734 83.5489L124.753 83.2736ZM119.807 82.8711L119.668 84.8663L119.668 84.8663L119.807 82.8711ZM103.399 82.173L101.402 82.2719L101.494 84.1343L103.358 84.1725L103.399 82.173ZM102.43 72.5797L104.407 72.2776L104.105 70.3006L102.128 70.6027L102.43 72.5797ZM100.453 72.8818L100.151 70.9048L98.1741 71.2069L98.4762 73.1839L100.453 72.8818ZM101.395 82.1361L101.363 84.1359L103.502 84.1707L103.393 82.0343L101.395 82.1361ZM87.4495 82.0869L87.4339 80.087L87.4339 80.087L87.4495 82.0869ZM78.3685 82.2142L76.3691 82.1629L76.3155 84.2553L78.4082 84.2138L78.3685 82.2142ZM78.9949 72.3323L80.9847 72.5341L81.1865 70.5444L79.1967 70.3425L78.9949 72.3323ZM77.0051 72.1304L77.2069 70.1406L75.2171 69.9388L75.0153 71.9286L77.0051 72.1304ZM76.367 82.2563L76.4116 84.2558L78.3188 84.2134L78.3664 82.3062L76.367 82.2563ZM50.5899 83.1765L48.5919 83.2658L48.6814 85.2699L50.6853 85.1743L50.5899 83.1765ZM50.2206 72.7381L52.2199 72.6844L52.1662 70.6851L50.1669 70.7388L50.2206 72.7381ZM48.2213 72.7918L48.1676 70.7926L46.1683 70.8463L46.222 72.8455L48.2213 72.7918ZM48.5923 83.2735L48.6909 85.2711L50.6792 85.1729L50.5903 83.1842L48.5923 83.2735ZM25.885 84.5964L23.9124 84.9267L24.2115 86.7125L26.0181 86.592L25.885 84.5964ZM24.4652 73.4778L26.4572 73.3L26.2794 71.3079L24.2873 71.4858L24.4652 73.4778ZM22.4731 73.6557L22.2952 71.6636L20.3031 71.8415L20.481 73.8336L22.4731 73.6557ZM23.88 84.7316L24.0159 86.7269L26.2138 86.5772L25.853 84.404L23.88 84.7316ZM6.11331 86.0519L4.2061 86.6541L4.68571 88.1732L6.27366 88.0455L6.11331 86.0519ZM1.93826 71.3202L3.87653 70.8272L3.38345 68.8889L1.44518 69.382L1.93826 71.3202ZM0 71.8133L-0.493082 69.8751L-2.43135 70.3681L-1.93826 72.3064L0 71.8133ZM25.9696 142.082L27.9695 142.102L27.9738 141.688L27.813 141.306L25.9696 142.082ZM27.4808 144.381L28.5483 142.689L28.5482 142.689L27.4808 144.381ZM30.8039 145.679L30.2959 147.614L30.2959 147.614L30.8039 145.679ZM41.9322 147.256L42.0849 145.262L42.0849 145.262L41.9322 147.256ZM75.4702 147.601L75.4034 145.602L75.4034 145.602L75.4702 147.601ZM109.255 145.169L109.008 143.184L109.008 143.184L109.255 145.169ZM120.658 143.235L121.144 145.175L121.144 145.175L120.658 143.235ZM124.103 142.097L123.247 140.289L123.247 140.289L124.103 142.097ZM125.239 141.393L123.932 139.879L123.932 139.879L125.239 141.393ZM13.0296 105.463L11.166 106.189L11.7113 107.589L13.2076 107.455L13.0296 105.463ZM6.73973 88.0081L6.58001 86.0145L4.0552 86.2167L4.83751 88.6258L6.73973 88.0081ZM28.5657 104.858L28.5549 106.857L31.225 106.872L30.488 104.305L28.5657 104.858ZM24.2231 86.7128L26.1913 86.358L25.8737 84.596L24.0874 84.7174L24.2231 86.7128ZM13.7904 107.404L13.6207 105.411L10.9449 105.639L11.9298 108.138L13.7904 107.404ZM20.1897 123.126L18.3429 123.894L18.785 124.958L19.9268 125.109L20.1897 123.126ZM29.1474 106.861L31.0666 106.298L30.6486 104.873L29.1641 104.861L29.1474 106.861ZM29.886 109.353L31.8023 108.78L31.8023 108.78L29.886 109.353ZM31.1453 113.534L33.0599 112.956L33.0597 112.955L31.1453 113.534ZM31.1462 113.537L29.2315 114.115L29.2319 114.117L31.1462 113.537ZM31.1467 113.539L29.2324 114.118L29.2328 114.119L31.1467 113.539ZM31.1473 113.541L33.0616 112.962L33.0613 112.961L31.1473 113.541ZM31.1479 113.543L29.2336 114.122L29.2362 114.131L29.2389 114.139L31.1479 113.543ZM31.1479 113.543L33.0623 112.964L33.0596 112.955L33.0569 112.946L31.1479 113.543ZM34.4916 124.888L34.2683 126.875L37.2191 127.207L36.4174 124.348L34.4916 124.888ZM21.0786 125.261L21.3388 123.278L17.8961 122.826L19.2327 126.031L21.0786 125.261ZM28.0713 141.92L29.9147 141.144L29.9147 141.144L28.0713 141.92ZM28.3331 142.542L26.4897 143.318L26.6985 143.814L27.1282 144.138L28.3331 142.542ZM28.5482 142.689L27.4808 144.381L27.4808 144.381L28.5482 142.689ZM31.3119 143.745L31.8198 141.81L31.8198 141.81L31.3119 143.745ZM39.2559 145.014L39.057 147.004L41.7181 147.27L41.221 144.642L39.2559 145.014ZM35.0661 126.964L36.9956 126.438L36.6379 125.127L35.2866 124.977L35.0661 126.964ZM37.2015 127.197L37.4144 125.209L34.5098 124.898L35.2705 127.718L37.2015 127.197ZM41.3261 145.202L39.36 145.569L39.6401 147.07L41.1623 147.195L41.3261 145.202ZM42.0849 145.262L41.9322 147.256L41.9322 147.256L42.0849 145.262ZM55.4793 145.819L55.4493 147.819L57.8188 147.855L57.4556 145.513L55.4793 145.819ZM52.9059 128.612L54.8862 128.332L54.6601 126.731L53.0468 126.617L52.9059 128.612ZM36.6341 125.125L34.707 125.66L35.0699 126.967L36.4183 127.113L36.6341 125.125ZM52.6227 126.587L52.4795 128.582L54.9423 128.758L54.6038 126.312L52.6227 126.587ZM50.351 107.825L52.341 107.624L52.1718 105.945L50.488 105.829L50.351 107.825ZM31.2403 106.888L31.2764 104.889L28.551 104.84L29.322 107.454L31.2403 106.888ZM31.8023 108.78L29.886 109.353L29.886 109.353L31.8023 108.78ZM33.0603 112.957L34.9928 112.442L34.9843 112.41L34.9747 112.378L33.0603 112.957ZM33.0604 112.957L31.1279 113.473L31.1325 113.49L31.1373 113.507L33.0604 112.957ZM33.0604 112.957L31.1374 113.507L31.1493 113.549L31.1631 113.59L33.0604 112.957ZM33.0604 112.957L34.9748 112.379L34.9667 112.352L34.9578 112.325L33.0604 112.957ZM54.9453 128.75L55.0746 126.754L52.6198 126.595L52.9651 129.03L54.9453 128.75ZM57.5069 145.843L55.5306 146.15L55.791 147.828L57.4892 147.843L57.5069 145.843ZM75.4034 145.602L75.4702 147.601L75.4702 147.601L75.4034 145.602ZM77.7701 145.517L77.8465 147.516L79.4717 147.454L79.7422 145.85L77.7701 145.517ZM79.1002 129.314L81.1002 129.315L81.1016 127.267L79.0538 127.314L79.1002 129.314ZM54.6613 126.727L52.6804 127.003L52.9046 128.616L54.5297 128.723L54.6613 126.727ZM79.084 127.314L79.1307 129.313L81.1168 129.267L81.0837 127.28L79.084 127.314ZM52.3755 107.965L52.5154 105.97L50.1456 105.804L50.3857 108.168L52.3755 107.965ZM56.0616 108.227L55.9195 110.222L55.9207 110.222L56.0616 108.227ZM56.0656 108.227L55.9247 110.222L55.9347 110.223L56.0656 108.227ZM56.0663 108.227L56.2088 106.232L56.1972 106.231L56.0663 108.227ZM56.0671 108.227L55.9246 110.222L55.925 110.222L56.0671 108.227ZM66.3827 108.936L66.2552 110.932L66.2552 110.932L66.3827 108.936ZM77.8493 109.552L79.8397 109.356L79.6696 107.626L77.9323 107.554L77.8493 109.552ZM77.9784 110.871L75.9878 111.065L75.9878 111.065L77.9784 110.871ZM81.1002 129.259L81.037 127.26L79.1006 127.321L79.1002 129.259L81.1002 129.259ZM79.8112 145.435L77.8377 145.111L77.4393 147.537L79.896 147.433L79.8112 145.435ZM95.9769 144.47L96.1332 146.464L97.9582 146.321L97.9768 144.49L95.9769 144.47ZM96.9657 128.229L98.9543 128.442L99.2159 126L96.7717 126.239L96.9657 128.229ZM81.0834 127.259L79.0837 127.292L79.1178 129.322L81.147 129.258L81.0834 127.259ZM97.1931 126.197L97.3903 128.188L98.9931 128.029L99.1797 126.429L97.1931 126.197ZM79.969 110.677L77.9784 110.871L77.9784 110.871L79.969 110.677ZM79.8666 109.631L79.9396 107.632L77.6526 107.549L77.8762 109.826L79.8666 109.631ZM99.4784 109.781L101.458 110.069L101.798 107.725L99.4308 107.781L99.4784 109.781ZM98.9705 113.233L96.992 112.94L96.9906 112.95L98.9705 113.233ZM98.9704 113.234L100.949 113.527L100.95 113.517L98.9704 113.234ZM98.9995 128.023L98.7901 126.034L97.1865 126.203L97.0113 127.806L98.9995 128.023ZM97.9788 144.308L95.9789 144.285L95.954 146.484L98.1456 146.301L97.9788 144.308ZM109.008 143.184L109.255 145.169L109.255 145.169L109.008 143.184ZM113.267 142.603L113.565 144.581L114.925 144.376L115.22 143.033L113.267 142.603ZM114.542 136.82L116.495 137.251L116.495 137.251L114.542 136.82ZM117.013 125.572L118.968 125.997L119.592 123.126L116.692 123.598L117.013 125.572ZM99.2316 125.987L97.2455 125.752L96.95 128.243L99.4443 127.976L99.2316 125.987ZM117.468 123.471L117.794 125.444L119.136 125.223L119.423 123.893L117.468 123.471ZM100.946 113.549L99.0056 113.063L98.9818 113.159L98.9674 113.256L100.946 113.549ZM100.946 113.548L102.886 114.034L102.911 113.935L102.925 113.835L100.946 113.548ZM100.946 113.548L98.9676 113.255L98.9666 113.261L100.946 113.548ZM101.507 109.726L101.446 107.726L99.7685 107.778L99.5281 109.439L101.507 109.726ZM120.56 108.503L122.523 108.884L123.034 106.251L120.365 106.512L120.56 108.503ZM119.136 125.221L118.805 123.248L117.469 123.473L117.182 124.797L119.136 125.221ZM116.497 137.245L114.544 136.814L114.54 136.833L114.536 136.853L116.497 137.245ZM116.497 137.245L118.42 137.794L118.442 137.717L118.458 137.637L116.497 137.245ZM116.497 137.245L114.574 136.696L114.557 136.754L114.544 136.814L116.497 137.245ZM116.49 137.277L114.537 136.846L114.537 136.846L116.49 137.277ZM116.479 137.325L114.526 136.894L114.526 136.894L116.479 137.325ZM116.471 137.362L114.518 136.931L114.518 136.931L116.471 137.362ZM116.45 137.455L118.403 137.886L118.403 137.886L116.45 137.455ZM115.39 142.265L113.436 141.834L112.798 144.732L115.724 144.237L115.39 142.265ZM120.172 141.295L119.686 139.354L119.686 139.354L120.172 141.295ZM123.247 140.289L124.103 142.097L124.103 142.097L123.247 140.289ZM123.932 139.879L122.626 138.364L122.626 138.364L123.932 139.879ZM124.016 139.794L125.722 140.837L122.377 138.648L124.016 139.794ZM123.987 139.881L122.021 139.509L121.65 141.475L123.615 141.846L123.987 139.881ZM124.969 140.067L124.598 142.032L125.616 138.174L124.969 140.067ZM124.023 139.744L122.13 139.097L121.484 140.99L123.376 141.636L124.023 139.744ZM124.522 138.283L122.634 137.622L122.632 137.629L122.629 137.636L124.522 138.283ZM124.522 138.282L122.64 137.605L122.637 137.613L122.634 137.621L124.522 138.282ZM124.522 138.282L126.404 138.959L126.41 138.944L126.415 138.928L124.522 138.282ZM129.59 123.347L131.487 123.981L132.567 120.749L129.219 121.382L129.59 123.347ZM119.591 123.115L117.636 122.695L117.014 125.582L119.926 125.087L119.591 123.115ZM130.314 121.174L130.688 123.139L131.843 122.918L132.212 121.803L130.314 121.174ZM122.638 108.292L122.429 106.303L120.955 106.458L120.674 107.913L122.638 108.292ZM134.879 106.745L136.796 107.314L137.688 104.309L134.587 104.767L134.879 106.745ZM30.6533 104.879L28.732 105.435L29.1431 106.856L30.623 106.879L30.6533 104.879ZM50.1525 105.806L50.0162 107.801L52.3684 107.962L52.1434 105.615L50.1525 105.806ZM26.2311 86.5778L26.0983 84.5822L23.8624 84.731L24.2633 86.9356L26.2311 86.5778ZM48.6854 85.2713L50.6831 85.1743L50.586 83.1751L48.5868 83.2738L48.6854 85.2713ZM77.6516 107.542L77.5671 109.54L79.8667 109.637L79.642 107.347L77.6516 107.542ZM66.5102 106.94L66.6377 104.944L66.6377 104.944L66.5102 106.94ZM76.3318 84.2576L78.3317 84.2784L78.3531 82.2119L76.287 82.2581L76.3318 84.2576ZM50.683 85.1744L50.5877 83.1766L48.5883 83.272L48.6854 85.2714L50.683 85.1744ZM52.1752 105.946L50.1845 106.138L50.3474 107.823L52.0356 107.941L52.1752 105.946ZM56.2651 106.235L56.1229 108.23L56.1939 108.235H56.2651V106.235ZM56.2651 106.235L56.4312 104.242L56.3483 104.235H56.2651V106.235ZM56.2653 106.235L56.0992 108.229L56.1092 108.229L56.1193 108.23L56.2653 106.235ZM56.2657 106.235L56.1198 108.23L56.1235 108.23L56.2657 106.235ZM99.7665 107.773L99.8165 109.773L101.51 109.73L101.747 108.053L99.7665 107.773ZM79.6691 107.622L77.6787 107.818L77.8494 109.556L79.5948 109.621L79.6691 107.622ZM101.476 84.1377L103.475 84.0786L103.418 82.1695L101.509 82.138L101.476 84.1377ZM87.4651 84.0868L87.4807 86.0868L87.4807 86.0868L87.4651 84.0868ZM78.332 84.2153L78.2921 82.2157L76.3531 82.2544L76.3322 84.1936L78.332 84.2153ZM120.953 106.454L121.152 108.444L122.639 108.296L122.918 106.828L120.953 106.454ZM101.794 107.716L99.8139 107.437L99.4833 109.79L101.858 109.715L101.794 107.716ZM124.473 85.2563L126.453 85.539L126.75 83.4603L124.66 83.265L124.473 85.2563ZM119.668 84.8663L119.528 86.8614L119.528 86.8614L119.668 84.8663ZM103.478 84.175L103.519 82.1754L101.418 82.1318L101.478 84.2321L103.478 84.175ZM135.499 104.631L135.797 106.608L137.063 106.418L137.42 105.187L135.499 104.631ZM123.029 106.239L121.064 105.868L120.565 108.515L123.243 108.228L123.029 106.239ZM139.887 87.7839L141.835 88.2373L142.265 86.3904L140.443 85.8628L139.887 87.7839ZM126.465 85.4541L126.675 83.4651L124.758 83.263L124.485 85.1717L126.465 85.4541ZM124.525 138.274L124.041 139.692L127.826 140.985L128.31 139.567L124.525 138.274ZM143.509 70.7314C138.001 98.8222 133.878 110.893 124.525 138.274L128.31 139.567C137.68 112.138 141.873 99.8627 147.434 71.501L143.509 70.7314ZM143.124 72.694L145.086 73.0788L145.856 69.1535L143.893 68.7687L143.124 72.694ZM142.286 86.2752C143.329 81.6877 144.373 76.7164 145.471 71.1162L141.546 70.3466C140.454 75.9157 139.418 80.8472 138.386 85.3886L142.286 86.2752ZM126.534 85.4612C131.97 86.0368 136.446 86.7983 139.785 87.7546L140.887 83.9092C137.228 82.8614 132.493 82.0698 126.955 81.4835L126.534 85.4612ZM126.211 71.9884C125.731 75.9741 125.251 79.6856 124.763 83.1973L128.725 83.7473C129.216 80.2097 129.7 76.4742 130.182 72.4669L126.211 71.9884ZM125.972 73.9741L127.958 74.2133L128.436 70.242L126.45 70.0028L125.972 73.9741ZM126.734 83.5489C127.227 80.0003 127.712 76.252 128.197 72.2276L124.225 71.7492C123.743 75.7517 123.261 79.4759 122.772 82.9984L126.734 83.5489ZM119.668 84.8663C121.365 84.985 122.999 85.1177 124.566 85.2649L124.94 81.2824C123.338 81.1319 121.672 80.9967 119.947 80.876L119.668 84.8663ZM103.358 84.1725C109.268 84.2938 114.74 84.5215 119.668 84.8663L119.947 80.876C114.939 80.5257 109.4 80.2957 103.44 80.1734L103.358 84.1725ZM100.453 72.8818C100.95 76.1305 101.252 79.2478 101.402 82.2719L105.397 82.074C105.241 78.9185 104.925 75.6654 104.407 72.2776L100.453 72.8818ZM100.755 74.8589L102.732 74.5568L102.128 70.6027L100.151 70.9048L100.755 74.8589ZM103.393 82.0343C103.237 78.9848 102.929 75.8458 102.43 72.5797L98.4762 73.1839C98.9544 76.3132 99.2489 79.3184 99.3978 82.238L103.393 82.0343ZM87.4651 84.0868C92.297 84.0492 96.9438 84.064 101.363 84.1359L101.428 80.1364C96.9727 80.064 92.2936 80.0491 87.4339 80.087L87.4651 84.0868ZM78.4082 84.2138C81.4902 84.1525 84.5124 84.1099 87.4651 84.0868L87.4339 80.087C84.464 80.1101 81.4257 80.153 78.3287 80.2145L78.4082 84.2138ZM77.0051 72.1304C76.6503 75.6275 76.4513 78.9604 76.3691 82.1629L80.3678 82.2654C80.4475 79.1583 80.6406 75.926 80.9847 72.5341L77.0051 72.1304ZM76.8032 74.1202L78.793 74.3221L79.1967 70.3425L77.2069 70.1406L76.8032 74.1202ZM78.3664 82.3062C78.4458 79.1239 78.642 75.8104 78.9949 72.3323L75.0153 71.9286C74.6516 75.5131 74.4494 78.9283 74.3677 82.2065L78.3664 82.3062ZM50.6853 85.1743C59.5431 84.7517 68.1789 84.4392 76.4116 84.2558L76.3225 80.2568C68.0516 80.4411 59.3818 80.7548 50.4946 81.1788L50.6853 85.1743ZM48.2213 72.7918C48.3197 76.4523 48.4429 79.929 48.5919 83.2658L52.588 83.0873C52.4401 79.7761 52.3176 76.3232 52.2199 72.6844L48.2213 72.7918ZM48.275 74.7911L50.2743 74.7374L50.1669 70.7388L48.1676 70.7926L48.275 74.7911ZM50.5903 83.1842C50.4418 79.8591 50.3188 76.3917 50.2206 72.7381L46.222 72.8455C46.3208 76.5209 46.4446 80.0121 46.5943 83.3628L50.5903 83.1842ZM26.0181 86.592C33.65 86.0829 41.2432 85.6388 48.6909 85.2711L48.4937 81.2759C41.0215 81.6449 33.4053 82.0903 25.7519 82.6008L26.0181 86.592ZM22.4731 73.6557C22.8303 77.6564 23.3195 81.3855 23.9124 84.9267L27.8575 84.2661C27.2811 80.824 26.8051 77.1965 26.4572 73.3L22.4731 73.6557ZM22.6509 75.6478L24.643 75.4699L24.2873 71.4858L22.2952 71.6636L22.6509 75.6478ZM25.853 84.404C25.2832 80.9728 24.8115 77.3568 24.4652 73.4778L20.481 73.8336C20.8365 77.8148 21.3211 81.5308 21.907 85.0592L25.853 84.404ZM6.27366 88.0455C12.1721 87.5711 18.1027 87.1298 24.0159 86.7269L23.744 82.7362C17.8142 83.1402 11.8674 83.5827 5.95296 84.0584L6.27366 88.0455ZM1.19493e-07 71.8133C1.33583 77.0644 2.69737 81.8752 4.2061 86.6541L8.02052 85.4498C6.5367 80.7499 5.19558 76.0122 3.87653 70.8272L1.19493e-07 71.8133ZM0.493082 73.7516L2.43135 73.2585L1.44518 69.382L-0.493082 69.8751L0.493082 73.7516ZM27.813 141.306C13.2246 106.648 7.38042 92.7129 1.93826 71.3202L-1.93826 72.3064C3.59009 94.0379 9.55823 108.248 24.1263 142.858L27.813 141.306ZM28.5482 142.689C28.2848 142.523 28.1211 142.369 28.0356 142.253C27.967 142.16 27.9693 142.124 27.9695 142.102L23.9697 142.061C23.9481 144.171 25.4301 145.451 26.4134 146.072L28.5482 142.689ZM31.3119 143.745C30.0321 143.409 29.1173 143.048 28.5483 142.689L26.4134 146.072C27.4948 146.755 28.8714 147.239 30.2959 147.614L31.3119 143.745ZM42.0849 145.262C37.5596 144.916 33.8554 144.413 31.3119 143.745L30.2959 147.614C33.1945 148.375 37.1862 148.899 41.7795 149.25L42.0849 145.262ZM75.4034 145.602C63.2269 146.009 51.1179 145.954 42.0849 145.262L41.7795 149.25C51.0189 149.958 63.2905 150.009 75.5369 149.6L75.4034 145.602ZM109.008 143.184C99.7842 144.329 87.5772 145.196 75.4034 145.602L75.5369 149.6C87.7915 149.191 100.124 148.317 109.501 147.154L109.008 143.184ZM120.172 141.295C117.466 141.972 113.625 142.611 109.008 143.184L109.501 147.154C114.174 146.574 118.202 145.911 121.144 145.175L120.172 141.295ZM123.247 140.289C122.56 140.615 121.531 140.954 120.172 141.295L121.144 145.175C122.597 144.811 123.921 144.396 124.96 143.904L123.247 140.289ZM123.932 139.879C123.808 139.985 123.591 140.126 123.247 140.289L124.96 143.904C125.476 143.659 126.045 143.338 126.545 142.907L123.932 139.879ZM123.991 139.863C124.003 139.81 124.022 139.785 124.017 139.792C124.015 139.796 124.007 139.806 123.992 139.822C123.977 139.838 123.958 139.857 123.932 139.879L126.545 142.907C126.994 142.52 127.625 141.838 127.876 140.814L123.991 139.863ZM14.8931 104.737C12.4525 98.4725 10.4352 92.9126 8.64194 87.3904L4.83751 88.6258C6.66012 94.2384 8.70508 99.8725 11.166 106.189L14.8931 104.737ZM28.5765 102.858C23.3626 102.829 18.1459 102.998 12.8515 103.471L13.2076 107.455C18.3533 106.995 23.4416 106.83 28.5549 106.857L28.5765 102.858ZM22.2548 87.0677C23.441 93.6475 24.9713 99.5875 26.6434 105.41L30.488 104.305C28.8369 98.5563 27.345 92.7572 26.1913 86.358L22.2548 87.0677ZM6.89944 90.0017C12.7058 89.5365 18.5414 89.1037 24.3587 88.7082L24.0874 84.7174C18.2537 85.114 12.4021 85.548 6.58001 86.0145L6.89944 90.0017ZM11.9298 108.138C13.8048 112.894 15.917 118.059 18.3429 123.894L22.0364 122.359C19.615 116.534 17.5133 111.394 15.6511 106.671L11.9298 108.138ZM29.1641 104.861C24.0029 104.818 18.8498 104.966 13.6207 105.411L13.9602 109.397C19.0421 108.964 24.0682 108.819 29.1308 108.861L29.1641 104.861ZM31.8023 108.78C31.5545 107.951 31.3091 107.125 31.0666 106.298L27.2283 107.424C27.4732 108.258 27.7206 109.092 27.9697 109.926L31.8023 108.78ZM33.0597 112.955C32.6358 111.553 32.2161 110.165 31.8023 108.78L27.9697 109.926C28.3857 111.318 28.8073 112.712 29.2308 114.113L33.0597 112.955ZM33.0608 112.959L33.0599 112.956L29.2306 114.112L29.2315 114.115L33.0608 112.959ZM33.061 112.96L33.0604 112.958L29.2319 114.117L29.2324 114.118L33.061 112.96ZM33.0613 112.961L33.0606 112.958L29.2328 114.119L29.2334 114.121L33.0613 112.961ZM33.0622 112.964L33.0616 112.962L29.233 114.12L29.2336 114.122L33.0622 112.964ZM33.0569 112.946L33.0568 112.946L29.2389 114.139L29.2389 114.139L33.0569 112.946ZM36.4174 124.348C35.3049 120.381 34.1696 116.626 33.0623 112.964L29.2335 114.122C30.3422 117.789 31.4661 121.506 32.5659 125.428L36.4174 124.348ZM19.9268 125.109C24.9611 125.776 29.726 126.365 34.2683 126.875L34.715 122.901C30.2031 122.394 25.4649 121.808 20.4525 121.144L19.9268 125.109ZM19.2327 126.031C21.3225 131.041 23.6396 136.546 26.228 142.696L29.9147 141.144C27.3256 134.993 25.0113 129.495 22.9244 124.491L19.2327 126.031ZM26.228 142.696L26.4897 143.318L30.1764 141.766L29.9147 141.144L26.228 142.696ZM27.1282 144.138C27.2381 144.221 27.3556 144.302 27.4808 144.381L29.6157 140.998C29.5748 140.972 29.55 140.954 29.5379 140.945L27.1282 144.138ZM27.4808 144.381C28.3063 144.902 29.4522 145.324 30.8039 145.679L31.8198 141.81C30.6112 141.493 29.9279 141.195 29.6157 140.998L27.4808 144.381ZM30.8039 145.679C32.9428 146.241 35.7642 146.675 39.057 147.004L39.4547 143.024C36.2462 142.703 33.663 142.294 31.8198 141.81L30.8039 145.679ZM41.221 144.642C39.9464 137.904 38.499 131.95 36.9956 126.438L33.1366 127.491C34.618 132.923 36.0395 138.772 37.2907 145.386L41.221 144.642ZM35.2866 124.977C30.8672 124.486 26.233 123.92 21.3388 123.278L20.8183 127.244C25.7346 127.889 30.3956 128.459 34.8456 128.952L35.2866 124.977ZM35.2705 127.718C36.7299 133.129 38.1298 138.974 39.36 145.569L43.2922 144.835C42.0392 138.118 40.6139 132.169 39.1325 126.676L35.2705 127.718ZM41.1623 147.195C41.4164 147.216 41.673 147.236 41.9322 147.256L42.2376 143.268C41.9856 143.249 41.7364 143.229 41.49 143.209L41.1623 147.195ZM41.9322 147.256C45.9428 147.563 50.5348 147.745 55.4493 147.819L55.5093 143.82C50.6503 143.747 46.1439 143.567 42.2376 143.268L41.9322 147.256ZM57.4556 145.513C56.5018 139.361 55.647 133.719 54.8862 128.332L50.9255 128.891C51.69 134.304 52.548 139.968 53.5029 146.126L57.4556 145.513ZM53.0468 126.617C48.1094 126.268 42.9292 125.799 37.4144 125.209L36.9886 129.186C42.5438 129.781 47.7726 130.254 52.765 130.607L53.0468 126.617ZM36.4183 127.113C42.084 127.728 47.406 128.217 52.4795 128.582L52.7659 124.592C47.7481 124.232 42.4751 123.747 36.8499 123.136L36.4183 127.113ZM54.6038 126.312C53.7164 119.901 52.9649 113.817 52.341 107.624L48.3611 108.025C48.991 114.277 49.749 120.412 50.6416 126.861L54.6038 126.312ZM50.488 105.829C43.9507 105.381 37.5935 105.003 31.2764 104.889L31.2043 108.888C37.4172 109 43.6928 109.372 50.214 109.82L50.488 105.829ZM29.322 107.454C29.5086 108.087 29.6967 108.72 29.886 109.353L33.7185 108.208C33.5304 107.578 33.3437 106.95 33.1587 106.323L29.322 107.454ZM29.886 109.353C30.3008 110.741 30.722 112.134 31.1459 113.536L34.9747 112.378C34.5505 110.975 34.1312 109.589 33.7185 108.208L29.886 109.353ZM31.1279 113.472L31.1279 113.473L34.9928 112.442L34.9928 112.442L31.1279 113.472ZM31.1373 113.507L31.1374 113.507L34.9835 112.408L34.9834 112.408L31.1373 113.507ZM31.1631 113.59L31.1631 113.59L34.9578 112.325L34.9578 112.325L31.1631 113.59ZM31.146 113.536C32.3274 117.443 33.5312 121.425 34.707 125.66L38.5612 124.59C37.3714 120.304 36.1546 116.28 34.9748 112.379L31.146 113.536ZM52.9651 129.03C53.7267 134.402 54.5807 140.029 55.5306 146.15L59.4833 145.537C58.5343 139.422 57.6835 133.815 56.9255 128.469L52.9651 129.03ZM57.4892 147.843C63.2163 147.894 69.3369 147.806 75.4702 147.601L75.3366 143.603C69.2516 143.806 63.1879 143.894 57.5247 143.844L57.4892 147.843ZM75.4702 147.601C76.2624 147.575 77.0548 147.546 77.8465 147.516L77.6936 143.519C76.9083 143.549 76.1224 143.577 75.3366 143.603L75.4702 147.601ZM79.7422 145.85C80.7304 139.991 81.0966 134.553 81.1002 129.315L77.1002 129.313C77.0968 134.359 76.7443 139.573 75.7979 145.185L79.7422 145.85ZM79.0538 127.314C71.439 127.491 63.6094 127.307 55.0746 126.754L54.8161 130.746C63.4531 131.305 71.4008 131.493 79.1466 131.313L79.0538 127.314ZM54.5297 128.723C63.2798 129.3 71.3096 129.496 79.1307 129.313L79.0373 125.314C71.3498 125.494 63.4399 125.302 54.793 124.732L54.5297 128.723ZM50.3857 108.168C51.0195 114.408 51.7821 120.54 52.6804 127.003L56.6423 126.452C55.7491 120.026 54.993 113.944 54.3652 107.763L50.3857 108.168ZM56.2036 106.232C54.9665 106.144 53.7371 106.056 52.5154 105.97L52.2355 109.96C53.4547 110.046 54.682 110.133 55.9195 110.222L56.2036 106.232ZM56.2065 106.232L56.2024 106.232L55.9207 110.222L55.9247 110.222L56.2065 106.232ZM56.1972 106.231L56.1965 106.231L55.9347 110.223L55.9354 110.223L56.1972 106.231ZM56.2096 106.232L56.2088 106.232L55.9238 110.222L55.9246 110.222L56.2096 106.232ZM66.5102 106.94C63.0001 106.716 59.5757 106.472 56.2092 106.232L55.925 110.222C59.2894 110.462 62.7282 110.707 66.2552 110.932L66.5102 106.94ZM77.9323 107.554C74.021 107.391 70.222 107.177 66.5102 106.94L66.2552 110.932C69.987 111.17 73.8169 111.386 77.7662 111.55L77.9323 107.554ZM79.969 110.677C79.9262 110.237 79.883 109.797 79.8397 109.356L75.8589 109.748C75.9021 110.188 75.9452 110.627 75.9878 111.065L79.969 110.677ZM81.0837 127.28C80.9896 121.625 80.5042 116.173 79.969 110.677L75.9878 111.065C76.5223 116.553 76.993 121.866 77.0843 127.347L81.0837 127.28ZM79.1002 129.259C79.099 134.291 78.7578 139.507 77.8377 145.111L81.7848 145.759C82.7447 139.913 83.0989 134.478 83.1002 129.26L79.1002 129.259ZM79.896 147.433C85.4722 147.196 90.981 146.868 96.1332 146.464L95.8207 142.476C90.7197 142.876 85.2587 143.202 79.7264 143.437L79.896 147.433ZM97.9768 144.49C98.0349 138.762 98.4163 133.464 98.9543 128.442L94.9771 128.016C94.4284 133.137 94.0367 138.567 93.977 144.45L97.9768 144.49ZM96.7717 126.239C91.4957 126.753 86.3055 127.094 81.037 127.26L81.1634 131.258C86.5227 131.089 91.8002 130.742 97.1596 130.22L96.7717 126.239ZM81.147 129.258C86.5887 129.085 91.9449 128.727 97.3903 128.188L96.9959 124.207C91.6355 124.738 86.3686 125.09 81.0198 125.26L81.147 129.258ZM77.9784 110.871C78.5132 116.362 78.9903 121.729 79.0837 127.292L83.0831 127.225C82.9868 121.487 82.4951 115.983 81.9596 110.483L77.9784 110.871ZM77.8762 109.826C77.9104 110.175 77.9445 110.523 77.9784 110.871L81.9596 110.483C81.9256 110.134 81.8914 109.785 81.8571 109.436L77.8762 109.826ZM99.4308 107.781C92.5879 107.945 86.1212 107.858 79.9396 107.632L79.7937 111.63C86.0403 111.857 92.5887 111.946 99.5261 111.78L99.4308 107.781ZM100.949 113.526C101.12 112.368 101.291 111.215 101.458 110.069L97.4992 109.493C97.3334 110.634 97.1636 111.781 96.992 112.94L100.949 113.526ZM100.95 113.517L100.95 113.516L96.9906 112.95L96.9905 112.951L100.95 113.517ZM99.1797 126.429C99.7008 121.959 100.33 117.705 100.949 113.527L96.9919 112.941C96.3747 117.111 95.736 121.425 95.2066 125.966L99.1797 126.429ZM97.0113 127.806C96.4497 132.946 96.0457 138.383 95.9789 144.285L99.9786 144.33C100.044 138.585 100.437 133.282 100.988 128.24L97.0113 127.806ZM98.1456 146.301C102.138 145.967 105.889 145.587 109.255 145.169L108.762 141.199C105.459 141.609 101.763 141.984 97.8119 142.315L98.1456 146.301ZM109.255 145.169C110.776 144.98 112.217 144.784 113.565 144.581L112.969 140.626C111.66 140.823 110.254 141.014 108.762 141.199L109.255 145.169ZM115.22 143.033C115.659 141.041 116.084 139.117 116.495 137.251L112.59 136.389C112.178 138.255 111.753 140.18 111.314 142.173L115.22 143.033ZM116.495 137.251C117.374 133.27 118.195 129.55 118.968 125.997L115.059 125.147C114.288 128.693 113.468 132.407 112.59 136.389L116.495 137.251ZM116.692 123.598C110.453 124.615 104.557 125.427 98.7901 126.034L99.2089 130.012C105.063 129.396 111.035 128.572 117.335 127.546L116.692 123.598ZM99.4443 127.976C105.361 127.343 111.404 126.498 117.794 125.444L117.143 121.498C110.814 122.541 104.847 123.375 99.0189 123.999L99.4443 127.976ZM98.9674 113.256C98.3714 117.285 97.7591 121.422 97.2455 125.752L101.218 126.223C101.723 121.959 102.327 117.877 102.924 113.841L98.9674 113.256ZM99.0056 113.063L99.0056 113.063L102.886 114.034L102.886 114.034L99.0056 113.063ZM98.9666 113.261L98.9665 113.262L102.925 113.835L102.925 113.834L98.9666 113.261ZM99.5281 109.439C99.345 110.704 99.1571 111.974 98.9676 113.255L102.925 113.84C103.114 112.56 103.303 111.284 103.487 110.012L99.5281 109.439ZM120.365 106.512C113.728 107.161 107.442 107.542 101.446 107.726L101.569 111.725C107.648 111.537 114.024 111.152 120.754 110.493L120.365 106.512ZM119.423 123.893C120.549 118.676 121.572 113.78 122.523 108.884L118.596 108.122C117.653 112.981 116.636 117.847 115.513 123.049L119.423 123.893ZM117.182 124.797C116.362 128.579 115.486 132.543 114.544 136.814L118.45 137.676C119.392 133.407 120.269 129.435 121.091 125.644L117.182 124.797ZM114.536 136.853L114.536 136.853L118.458 137.637L118.458 137.637L114.536 136.853ZM114.574 136.695L114.574 136.696L118.42 137.795L118.42 137.794L114.574 136.695ZM114.544 136.814L114.537 136.846L118.443 137.709L118.45 137.677L114.544 136.814ZM114.537 136.846L114.526 136.894L118.432 137.756L118.443 137.708L114.537 136.846ZM114.526 136.894L114.518 136.931L118.424 137.794L118.432 137.756L114.526 136.894ZM114.518 136.931L114.497 137.024L118.403 137.886L118.424 137.793L114.518 136.931ZM114.497 137.024C114.153 138.585 113.799 140.187 113.436 141.834L117.343 142.695C117.706 141.048 118.059 139.447 118.403 137.886L114.497 137.024ZM115.724 144.237C117.596 143.919 119.259 143.585 120.658 143.235L119.686 139.354C118.419 139.672 116.865 139.986 115.056 140.293L115.724 144.237ZM120.658 143.235C122.064 142.883 123.24 142.506 124.103 142.097L122.39 138.482C121.879 138.724 120.999 139.026 119.686 139.354L120.658 143.235ZM124.103 142.097C124.533 141.893 124.927 141.662 125.239 141.393L122.626 138.364C122.667 138.329 122.676 138.328 122.63 138.356C122.587 138.382 122.51 138.425 122.39 138.482L124.103 142.097ZM125.239 141.393C125.387 141.265 125.532 141.116 125.655 140.939L122.377 138.648C122.438 138.561 122.493 138.497 122.531 138.456C122.572 138.412 122.605 138.382 122.626 138.364L125.239 141.393ZM122.31 138.75C122.185 138.955 122.078 139.21 122.021 139.509L125.952 140.253C125.915 140.448 125.839 140.646 125.722 140.837L122.31 138.75ZM123.615 141.846L124.598 142.032L125.341 138.102L124.358 137.916L123.615 141.846ZM125.616 138.174L124.669 137.851L123.376 141.636L124.323 141.959L125.616 138.174ZM125.915 140.39L126.414 138.929L122.629 137.636L122.13 139.097L125.915 140.39ZM126.41 138.943L126.41 138.943L122.634 137.621L122.634 137.622L126.41 138.943ZM126.404 138.96L126.404 138.959L122.64 137.604L122.64 137.605L126.404 138.96ZM126.415 138.928C128.298 133.416 129.971 128.516 131.487 123.981L127.694 122.713C126.183 127.233 124.514 132.12 122.63 137.635L126.415 138.928ZM129.219 121.382C125.623 122.062 122.162 122.684 118.805 123.248L119.468 127.193C122.856 126.623 126.344 125.996 129.962 125.312L129.219 121.382ZM119.926 125.087C123.395 124.497 126.972 123.848 130.688 123.139L129.939 119.209C126.244 119.914 122.694 120.559 119.256 121.144L119.926 125.087ZM120.674 107.913C119.742 112.743 118.739 117.564 117.636 122.695L121.546 123.536C122.654 118.389 123.662 113.538 124.601 108.671L120.674 107.913ZM134.587 104.767C130.404 105.383 126.355 105.89 122.429 106.303L122.847 110.281C126.828 109.863 130.932 109.349 135.17 108.724L134.587 104.767ZM132.212 121.803C133.91 116.68 135.411 111.981 136.796 107.314L132.961 106.176C131.592 110.79 130.105 115.446 128.415 120.545L132.212 121.803ZM30.623 106.879C36.9848 106.976 43.3919 107.348 50.0162 107.801L50.2889 103.81C43.6461 103.356 37.1541 102.978 30.6837 102.879L30.623 106.879ZM24.2633 86.9356C25.4672 93.5546 27.0256 99.5328 28.732 105.435L32.5746 104.324C30.8882 98.4909 29.3692 92.6551 28.1988 86.2199L24.2633 86.9356ZM48.5868 83.2738C41.1984 83.6386 33.6677 84.0784 26.0983 84.5822L26.3639 88.5733C33.912 88.071 41.4199 87.6326 48.7841 87.2689L48.5868 83.2738ZM52.1434 105.615C51.5225 99.1392 51.0385 92.4891 50.6831 85.1743L46.6878 85.3684C47.0461 92.7436 47.5346 99.4563 48.1616 105.997L52.1434 105.615ZM77.736 105.544C73.9406 105.384 70.2492 105.175 66.6377 104.944L66.3827 108.936C70.0136 109.168 73.7351 109.378 77.5671 109.54L77.736 105.544ZM74.3319 84.2369C74.243 92.813 74.9476 100.463 75.6611 107.737L79.642 107.347C78.9291 100.079 78.2452 92.6182 78.3317 84.2784L74.3319 84.2369ZM50.7784 87.1721C59.593 86.7515 68.1854 86.4403 76.3765 86.2571L76.287 82.2581C68.0579 82.4422 59.4316 82.7547 50.5877 83.1766L50.7784 87.1721ZM54.1659 105.753C53.5325 99.2014 53.0404 92.4815 52.6807 85.0773L48.6854 85.2714C49.0481 92.7371 49.5447 99.5207 50.1845 106.138L54.1659 105.753ZM56.4073 104.24C55.0352 104.143 53.671 104.045 52.3148 103.951L52.0356 107.941C53.3887 108.035 54.7503 108.132 56.1229 108.23L56.4073 104.24ZM56.2651 104.235H56.2651V108.235H56.2651V104.235ZM56.4314 104.242L56.4312 104.242L56.099 108.229L56.0992 108.229L56.4314 104.242ZM56.4117 104.241L56.4112 104.241L56.1193 108.23L56.1198 108.23L56.4117 104.241ZM66.6377 104.944C63.1627 104.722 59.7613 104.48 56.408 104.241L56.1235 108.23C59.4747 108.469 62.8906 108.713 66.3827 108.936L66.6377 104.944ZM99.7166 105.774C92.6974 105.949 86.0733 105.859 79.7435 105.624L79.5948 109.621C85.9911 109.859 92.6995 109.95 99.8165 109.773L99.7166 105.774ZM99.4766 84.1968C99.7145 92.2442 98.8855 99.7145 97.7862 107.493L101.747 108.053C102.855 100.21 103.723 92.4715 103.475 84.0786L99.4766 84.1968ZM87.4807 86.0868C92.3415 86.0489 97.0099 86.0643 101.443 86.1375L101.509 82.138C97.0394 82.0643 92.3383 82.0488 87.4495 82.0869L87.4807 86.0868ZM78.372 86.2149C81.4724 86.153 84.5119 86.1099 87.4807 86.0868L87.4495 82.0869C84.4634 82.1102 81.4076 82.1535 78.2921 82.2157L78.372 86.2149ZM81.6596 107.427C80.9362 100.059 80.2416 92.5849 80.3319 84.2369L76.3322 84.1936C76.2392 92.7813 76.9552 100.448 77.6787 107.818L81.6596 107.427ZM120.754 104.464C114.078 105.131 107.757 105.524 101.73 105.717L101.858 109.715C107.97 109.519 114.381 109.121 121.152 108.444L120.754 104.464ZM122.494 84.9736C121.397 92.6503 120.257 99.405 118.988 106.081L122.918 106.828C124.197 100.094 125.348 93.2786 126.453 85.539L122.494 84.9736ZM119.528 86.8614C121.181 86.977 122.769 87.1057 124.287 87.2476L124.66 83.265C123.107 83.1199 121.489 82.9888 119.807 82.8711L119.528 86.8614ZM103.436 86.1746C109.273 86.2959 114.671 86.5216 119.528 86.8614L119.807 82.8711C114.87 82.5258 109.405 82.2978 103.519 82.1754L103.436 86.1746ZM103.775 107.994C104.862 100.253 105.717 92.5217 105.477 84.1179L101.478 84.2321C101.709 92.2971 100.892 99.7649 99.8139 107.437L103.775 107.994ZM135.201 102.653C130.937 103.295 126.813 103.822 122.816 104.251L123.243 108.228C127.296 107.793 131.476 107.259 135.797 106.608L135.201 102.653ZM137.939 87.3304C136.537 93.3549 135.126 98.7301 133.578 104.074L137.42 105.187C138.988 99.7743 140.417 94.3304 141.835 88.2373L137.939 87.3304ZM126.256 87.4431C131.717 88.0189 136.122 88.7756 139.331 89.7049L140.443 85.8628C136.908 84.8386 132.236 84.0515 126.675 83.4651L126.256 87.4431ZM124.995 106.61C126.239 100.018 127.364 93.3194 128.445 85.7365L124.485 85.1717C123.413 92.6935 122.298 99.3328 121.064 105.868L124.995 106.61Z" fill="black" mask="url(#path-14-inside-1_5_111)"/>
</svg>
